<svg xmlns="http://www.w3.org/2000/svg" xmlns:xlink="http://www.w3.org/1999/xlink" viewBox="0 0 1366 783"><defs><style>.a{fill:url(#a);}.b{fill:#c9c9c9;}.c{fill:#777;}</style><linearGradient id="a" x1="1216.5" y1="917.5" x2="149.5" y2="-149.5" gradientUnits="userSpaceOnUse"><stop offset="0" stop-color="#97272d"/><stop offset="0.35" stop-color="#550009"/><stop offset="0.56" stop-color="#bf000a"/><stop offset="0.76" stop-color="#75000a"/><stop offset="1" stop-color="#7f000a"/></linearGradient></defs><title>bgweb</title><rect class="a" width="1366" height="768"/><polygon class="b" points="553.57 113.36 553.57 196.57 497.43 238.29 497.43 363.94 438.3 407.88 438.3 510.75 507.59 562.24 507.59 614 505.9 614 505.9 562.76 436.61 511.27 436.61 407.36 495.74 363.42 495.74 237.77 551.88 196.05 551.88 113.36 553.57 113.36"/><polygon class="b" points="689.94 448.41 689.94 529.46 646.18 561.99 646.18 614 644.49 614 644.49 561.47 688.25 528.94 688.25 448.93 589.78 375.75 589.78 246.29 644.23 205.83 644.23 107.16 645.92 107.16 645.92 206.35 591.47 246.81 591.47 375.23 689.94 448.41"/><polygon class="b" points="581.83 102.51 581.83 209.06 526.87 249.91 526.87 374.97 471.12 416.4 471.12 480.16 532.6 525.85 532.6 614 530.91 614 530.91 526.37 469.43 480.68 469.43 415.88 525.18 374.45 525.18 249.39 580.14 208.54 580.14 102.51 581.83 102.51"/><polygon class="b" points="621.69 73.86 621.69 203.06 544.06 260.75 544.06 490.22 609.71 539.01 609.71 614 608.01 614 608.01 539.53 542.37 490.75 542.37 260.23 620 202.54 620 73.86 621.69 73.86"/><ellipse class="b" cx="437.39" cy="511.05" rx="4.82" ry="3.58"/><ellipse class="b" cx="470.15" cy="416.05" rx="4.82" ry="3.58"/><ellipse class="b" cx="470.41" cy="479.74" rx="4.82" ry="3.58"/><ellipse class="b" cx="496.33" cy="363.77" rx="4.82" ry="3.58"/><ellipse class="b" cx="609.12" cy="539.08" rx="4.82" ry="3.58"/><ellipse class="b" cx="689.03" cy="529.35" rx="4.82" ry="3.58"/><ellipse class="b" cx="689.03" cy="448.62" rx="4.82" ry="3.58"/><ellipse class="b" cx="542.89" cy="490.63" rx="4.82" ry="3.58"/><ellipse class="b" cx="496.68" cy="237.94" rx="3.06" ry="2.27"/><ellipse class="b" cx="590.69" cy="375.15" rx="3.06" ry="2.27"/><ellipse class="b" cx="543.25" cy="260.61" rx="3.06" ry="2.27"/><ellipse class="b" cx="525.7" cy="374.76" rx="3.06" ry="2.27"/><ellipse class="b" cx="644.84" cy="206.15" rx="3.06" ry="2.27"/><ellipse class="b" cx="580.75" cy="102.58" rx="3.06" ry="2.27"/><ellipse class="b" cx="620.87" cy="73.93" rx="3.06" ry="2.27"/><ellipse class="b" cx="552.62" cy="113.23" rx="3.06" ry="2.27"/><ellipse class="b" cx="644.97" cy="107.23" rx="3.06" ry="2.27"/><ellipse class="b" cx="580.85" cy="208.68" rx="3.06" ry="2.27"/><polygon class="c" points="650.01 305.4 541.96 305.4 487.8 265.14 324.67 265.14 267.61 222.74 134.06 222.74 67.2 272.43 0 272.43 0 271.22 66.52 271.22 133.38 221.53 268.28 221.53 325.34 263.93 488.47 263.93 542.64 304.19 650.01 304.19 650.01 305.4"/><polygon class="c" points="215 403.19 109.76 403.19 67.53 371.81 0 371.81 0 370.6 68.2 370.6 110.43 401.98 214.32 401.98 309.33 331.37 477.41 331.37 529.95 370.41 658.05 370.41 658.05 371.62 529.27 371.62 476.74 332.58 310.01 332.58 215 403.19"/><polygon class="c" points="664.08 325.67 525.75 325.67 472.71 286.25 310.34 286.25 256.55 246.28 173.77 246.28 114.45 290.36 0 290.36 0 289.15 113.78 289.15 173.1 245.06 257.22 245.06 311.01 285.04 473.39 285.04 526.43 324.46 664.08 324.46 664.08 325.67"/><polygon class="c" points="701.28 354.25 533.54 354.25 458.64 298.58 160.7 298.58 97.36 345.66 0 345.66 0 344.44 96.69 344.44 160.03 297.37 459.31 297.37 534.22 353.04 701.28 353.04 701.28 354.25"/><ellipse class="c" cx="133.66" cy="222.09" rx="4.65" ry="3.46"/><ellipse class="c" cx="257.01" cy="245.58" rx="4.65" ry="3.46"/><ellipse class="c" cx="174.32" cy="245.76" rx="4.65" ry="3.46"/><ellipse class="c" cx="324.88" cy="264.35" rx="4.65" ry="3.46"/><ellipse class="c" cx="97.27" cy="345.24" rx="4.65" ry="3.46"/><ellipse class="c" cx="109.91" cy="402.54" rx="4.65" ry="3.46"/><ellipse class="c" cx="214.72" cy="402.54" rx="4.65" ry="3.46"/><ellipse class="c" cx="160.18" cy="297.74" rx="4.65" ry="3.46"/><ellipse class="c" cx="488.26" cy="264.61" rx="2.95" ry="2.19"/><ellipse class="c" cx="310.11" cy="332.02" rx="2.95" ry="2.19"/><ellipse class="c" cx="458.82" cy="298" rx="2.95" ry="2.19"/><ellipse class="c" cx="310.61" cy="285.41" rx="2.95" ry="2.19"/><ellipse class="c" cx="529.52" cy="370.85" rx="2.95" ry="2.19"/><ellipse class="c" cx="664" cy="324.89" rx="2.95" ry="2.19"/><ellipse class="c" cx="701.2" cy="353.66" rx="2.95" ry="2.19"/><ellipse class="c" cx="650.17" cy="304.72" rx="2.95" ry="2.19"/><ellipse class="c" cx="657.96" cy="370.94" rx="2.95" ry="2.19"/><ellipse class="c" cx="526.24" cy="324.96" rx="2.95" ry="2.19"/><polygon class="c" points="410.32 471.17 410.32 392.85 463.15 353.59 463.15 235.34 518.81 193.98 518.81 97.18 453.59 48.71 453.59 0 455.19 0 455.19 48.22 520.4 96.69 520.4 194.47 464.75 235.83 464.75 354.08 411.92 393.34 411.92 471.17 410.32 471.17"/><polygon class="c" points="281.98 155.84 281.98 79.56 323.17 48.95 323.17 0 324.76 0 324.76 49.44 283.57 80.05 283.57 155.35 376.24 224.23 376.24 346.06 325 384.14 325 477 323.41 477 323.41 383.65 374.65 345.57 374.65 224.72 281.98 155.84"/><polygon class="c" points="383.72 481.38 383.72 381.1 435.45 342.66 435.45 224.96 487.92 185.96 487.92 125.96 430.06 82.97 430.06 0 431.65 0 431.65 82.47 489.51 125.47 489.51 186.45 437.04 225.45 437.04 343.15 385.31 381.59 385.31 481.38 383.72 481.38"/><polygon class="c" points="346.21 508.34 346.21 386.75 419.27 332.45 419.27 116.49 357.49 70.58 357.49 0 359.08 0 359.08 70.08 420.86 116 420.86 332.94 347.8 387.24 347.8 508.34 346.21 508.34"/><ellipse class="c" cx="519.66" cy="96.89" rx="4.54" ry="3.37"/><ellipse class="c" cx="488.84" cy="186.3" rx="4.54" ry="3.37"/><ellipse class="c" cx="488.59" cy="126.36" rx="4.54" ry="3.37"/><ellipse class="c" cx="464.2" cy="235.5" rx="4.54" ry="3.37"/><ellipse class="c" cx="358.04" cy="70.51" rx="4.54" ry="3.37"/><ellipse class="c" cx="282.84" cy="79.67" rx="4.54" ry="3.37"/><ellipse class="c" cx="282.84" cy="155.65" rx="4.54" ry="3.37"/><ellipse class="c" cx="420.37" cy="116.11" rx="4.54" ry="3.37"/><ellipse class="c" cx="463.86" cy="353.93" rx="2.88" ry="2.14"/><ellipse class="c" cx="375.39" cy="224.79" rx="2.88" ry="2.14"/><ellipse class="c" cx="420.04" cy="332.59" rx="2.88" ry="2.14"/><ellipse class="c" cx="436.55" cy="225.16" rx="2.88" ry="2.14"/><ellipse class="c" cx="324.43" cy="383.84" rx="2.88" ry="2.14"/><ellipse class="c" cx="384.74" cy="481.31" rx="2.88" ry="2.14"/><ellipse class="c" cx="346.99" cy="508.28" rx="2.88" ry="2.14"/><ellipse class="c" cx="411.22" cy="471.29" rx="2.88" ry="2.14"/><ellipse class="c" cx="324.31" cy="476.94" rx="2.88" ry="2.14"/><ellipse class="c" cx="384.65" cy="381.46" rx="2.88" ry="2.14"/><polygon class="b" points="784.82 568.12 784.82 477.18 843.65 431.59 843.65 294.28 905.63 246.25 905.63 133.84 833.01 77.56 833.01 21 834.78 21 834.78 76.99 907.4 133.27 907.4 246.82 845.43 294.85 845.43 432.15 786.59 477.75 786.59 568.12 784.82 568.12"/><polygon class="b" points="641.89 201.97 641.89 113.38 687.76 77.84 687.76 21 689.53 21 689.53 78.41 643.67 113.95 643.67 201.4 746.87 281.37 746.87 422.85 689.81 467.06 689.81 574.89 688.03 574.89 688.03 466.5 745.1 422.28 745.1 281.94 641.89 201.97"/><polygon class="b" points="755.2 579.97 755.2 463.53 812.8 418.89 812.8 282.22 871.23 236.94 871.23 167.27 806.8 117.34 806.8 21 808.57 21 808.57 116.77 873 166.7 873 237.51 814.58 282.79 814.58 419.46 756.97 464.1 756.97 579.97 755.2 579.97"/><polygon class="b" points="713.42 611.28 713.42 470.09 794.78 407.04 794.78 156.27 725.98 102.95 725.98 21 727.76 21 727.76 102.38 796.56 155.7 796.56 407.61 715.2 470.66 715.2 611.28 713.42 611.28"/><ellipse class="b" cx="906.59" cy="133.5" rx="5.05" ry="3.91"/><ellipse class="b" cx="872.25" cy="237.33" rx="5.05" ry="3.91"/><ellipse class="b" cx="871.98" cy="167.72" rx="5.05" ry="3.91"/><ellipse class="b" cx="844.81" cy="294.46" rx="5.05" ry="3.91"/><ellipse class="b" cx="726.6" cy="102.88" rx="5.05" ry="3.91"/><ellipse class="b" cx="642.85" cy="113.51" rx="5.05" ry="3.91"/><ellipse class="b" cx="642.85" cy="201.73" rx="5.05" ry="3.91"/><ellipse class="b" cx="796.01" cy="155.82" rx="5.05" ry="3.91"/><ellipse class="b" cx="844.44" cy="431.98" rx="3.21" ry="2.49"/><ellipse class="b" cx="745.91" cy="282.03" rx="3.21" ry="2.49"/><ellipse class="b" cx="795.64" cy="407.2" rx="3.21" ry="2.49"/><ellipse class="b" cx="814.03" cy="282.45" rx="3.21" ry="2.49"/><ellipse class="b" cx="689.17" cy="466.71" rx="3.21" ry="2.49"/><ellipse class="b" cx="756.33" cy="579.9" rx="3.21" ry="2.49"/><ellipse class="b" cx="714.29" cy="611.21" rx="3.21" ry="2.49"/><ellipse class="b" cx="785.82" cy="568.26" rx="3.21" ry="2.49"/><ellipse class="b" cx="689.03" cy="574.82" rx="3.21" ry="2.49"/><ellipse class="b" cx="756.23" cy="463.94" rx="3.21" ry="2.49"/><polygon class="c" points="683.75 358.25 796.98 358.25 853.76 402.24 1024.73 402.24 1084.53 448.58 1224.5 448.58 1294.57 394.28 1365 394.28 1365 395.61 1295.28 395.61 1225.2 449.91 1083.82 449.91 1024.02 403.57 853.05 403.57 796.27 359.57 683.75 359.57 683.75 358.25"/><polygon class="c" points="1139.67 251.38 1249.97 251.38 1294.23 285.67 1365 285.67 1365 287 1293.52 287 1249.26 252.7 1140.38 252.7 1040.8 329.87 864.64 329.87 809.58 287.2 675.32 287.2 675.32 285.88 810.29 285.88 865.35 328.54 1040.09 328.54 1139.67 251.38"/><polygon class="c" points="668.99 336.1 813.98 336.1 869.56 379.17 1039.74 379.17 1096.12 422.86 1182.87 422.86 1245.04 374.68 1365 374.68 1365 376.01 1245.75 376.01 1183.58 424.19 1095.41 424.19 1039.04 380.5 868.85 380.5 813.27 337.42 668.99 337.42 668.99 336.1"/><polygon class="c" points="630 304.86 805.81 304.86 884.31 365.7 1196.57 365.7 1262.96 314.25 1365 314.25 1365 315.58 1263.67 315.58 1197.28 367.02 883.61 367.02 805.1 306.19 630 306.19 630 304.86"/><ellipse class="c" cx="1224.92" cy="449.3" rx="4.87" ry="3.78"/><ellipse class="c" cx="1095.63" cy="423.62" rx="4.87" ry="3.78"/><ellipse class="c" cx="1182.3" cy="423.42" rx="4.87" ry="3.78"/><ellipse class="c" cx="1024.5" cy="403.11" rx="4.87" ry="3.78"/><ellipse class="c" cx="1263.05" cy="314.71" rx="4.87" ry="3.78"/><ellipse class="c" cx="1249.81" cy="252.09" rx="4.87" ry="3.78"/><ellipse class="c" cx="1139.96" cy="252.09" rx="4.87" ry="3.78"/><ellipse class="c" cx="1197.12" cy="366.62" rx="4.87" ry="3.78"/><ellipse class="c" cx="853.27" cy="402.83" rx="3.1" ry="2.4"/><ellipse class="c" cx="1039.98" cy="329.16" rx="3.1" ry="2.4"/><ellipse class="c" cx="884.12" cy="366.34" rx="3.1" ry="2.4"/><ellipse class="c" cx="1039.46" cy="380.09" rx="3.1" ry="2.4"/><ellipse class="c" cx="810.02" cy="286.73" rx="3.1" ry="2.4"/><ellipse class="c" cx="669.08" cy="336.94" rx="3.1" ry="2.4"/><ellipse class="c" cx="630.1" cy="305.51" rx="3.1" ry="2.4"/><ellipse class="c" cx="683.57" cy="358.99" rx="3.1" ry="2.4"/><ellipse class="c" cx="675.41" cy="286.62" rx="3.1" ry="2.4"/><ellipse class="c" cx="813.47" cy="336.87" rx="3.1" ry="2.4"/><polygon class="c" points="934.95 177.09 934.95 262.68 879.58 305.59 879.58 434.81 821.25 480.01 821.25 585.8 889.6 638.77 889.6 692 887.93 692 887.93 639.3 819.58 586.34 819.58 479.48 877.91 434.28 877.91 305.05 933.28 262.14 933.28 177.09 934.95 177.09"/><polygon class="c" points="1069.47 521.69 1069.47 605.05 1026.3 638.51 1026.3 692 1024.63 692 1024.63 637.97 1067.8 604.52 1067.8 522.22 970.67 446.96 970.67 313.81 1024.37 272.2 1024.37 170.72 1026.04 170.72 1026.04 272.73 972.34 314.35 972.34 446.42 1069.47 521.69"/><polygon class="c" points="962.83 165.94 962.83 275.52 908.62 317.53 908.62 446.16 853.63 488.77 853.63 554.34 914.27 601.33 914.27 692 912.6 692 912.6 601.87 851.96 554.88 851.96 488.24 906.95 445.63 906.95 317 961.16 274.98 961.16 165.94 962.83 165.94"/><polygon class="c" points="1002.15 136.47 1002.15 269.35 925.58 328.68 925.58 564.7 990.33 614.87 990.33 692 988.66 692 988.66 615.41 923.91 565.23 923.91 328.15 1000.48 268.81 1000.48 136.47 1002.15 136.47"/><ellipse class="c" cx="820.35" cy="586.12" rx="4.75" ry="3.68"/><ellipse class="c" cx="852.67" cy="488.4" rx="4.75" ry="3.68"/><ellipse class="c" cx="852.92" cy="553.91" rx="4.75" ry="3.68"/><ellipse class="c" cx="878.49" cy="434.64" rx="4.75" ry="3.68"/><ellipse class="c" cx="989.75" cy="614.94" rx="4.75" ry="3.68"/><ellipse class="c" cx="1068.57" cy="604.94" rx="4.75" ry="3.68"/><ellipse class="c" cx="1068.57" cy="521.91" rx="4.75" ry="3.68"/><ellipse class="c" cx="924.42" cy="565.11" rx="4.75" ry="3.68"/><ellipse class="c" cx="878.84" cy="305.22" rx="3.02" ry="2.34"/><ellipse class="c" cx="971.57" cy="446.34" rx="3.02" ry="2.34"/><ellipse class="c" cx="924.77" cy="328.54" rx="3.02" ry="2.34"/><ellipse class="c" cx="907.46" cy="445.94" rx="3.02" ry="2.34"/><ellipse class="c" cx="1024.97" cy="272.53" rx="3.02" ry="2.34"/><ellipse class="c" cx="961.76" cy="166" rx="3.02" ry="2.34"/><ellipse class="c" cx="1001.33" cy="136.54" rx="3.02" ry="2.34"/><ellipse class="c" cx="934.01" cy="176.96" rx="3.02" ry="2.34"/><ellipse class="c" cx="1025.1" cy="170.78" rx="3.02" ry="2.34"/><ellipse class="c" cx="961.86" cy="275.13" rx="3.02" ry="2.34"/><polygon class="c" points="813.41 608.76 678.54 608.76 610.92 546.24 407.29 546.24 336.06 480.38 169.36 480.38 85.89 557.56 2.01 557.56 2.01 555.67 85.05 555.67 168.51 478.5 336.91 478.5 408.13 544.36 611.77 544.36 679.39 606.88 813.41 606.88 813.41 608.76"/><polygon class="c" points="270.39 760.65 139.02 760.65 86.31 711.91 2.01 711.91 2.01 710.02 87.15 710.02 139.86 758.76 269.55 758.76 388.15 649.09 597.96 649.09 663.54 709.73 823.45 709.73 823.45 711.62 662.7 711.62 597.12 650.98 388.99 650.98 270.39 760.65"/><polygon class="c" points="830.98 640.24 658.3 640.24 592.1 579.03 389.4 579.03 322.26 516.94 218.93 516.94 144.88 585.41 2.01 585.41 2.01 583.52 144.04 583.52 218.09 515.05 323.1 515.05 390.25 577.14 592.94 577.14 659.15 638.36 830.98 638.36 830.98 640.24"/><polygon class="c" points="877.42 684.63 668.03 684.63 574.53 598.17 202.62 598.17 123.55 671.29 2.01 671.29 2.01 669.4 122.7 669.4 201.77 596.29 575.37 596.29 668.87 682.75 877.42 682.75 877.42 684.63"/><ellipse class="c" cx="168.86" cy="479.37" rx="5.8" ry="5.37"/><ellipse class="c" cx="322.84" cy="515.85" rx="5.8" ry="5.37"/><ellipse class="c" cx="219.61" cy="516.14" rx="5.8" ry="5.37"/><ellipse class="c" cx="407.55" cy="545.01" rx="5.8" ry="5.37"/><ellipse class="c" cx="123.44" cy="670.64" rx="5.8" ry="5.37"/><ellipse class="c" cx="139.21" cy="759.63" rx="5.8" ry="5.37"/><ellipse class="c" cx="270.05" cy="759.63" rx="5.8" ry="5.37"/><ellipse class="c" cx="201.96" cy="596.87" rx="5.8" ry="5.37"/><ellipse class="c" cx="611.5" cy="545.41" rx="3.69" ry="3.41"/><ellipse class="c" cx="389.12" cy="650.11" rx="3.69" ry="3.41"/><ellipse class="c" cx="574.75" cy="597.27" rx="3.69" ry="3.41"/><ellipse class="c" cx="389.75" cy="577.72" rx="3.69" ry="3.41"/><ellipse class="c" cx="663.01" cy="710.41" rx="3.69" ry="3.41"/><ellipse class="c" cx="830.88" cy="639.04" rx="3.69" ry="3.41"/><ellipse class="c" cx="877.31" cy="683.72" rx="3.69" ry="3.41"/><ellipse class="c" cx="813.62" cy="607.7" rx="3.69" ry="3.41"/><ellipse class="c" cx="823.35" cy="710.56" rx="3.69" ry="3.41"/><ellipse class="c" cx="658.91" cy="639.15" rx="3.69" ry="3.41"/><polygon class="c" points="1192.38 79.59 1192.38 196.51 1140.9 255.13 1140.9 431.66 1086.68 493.41 1086.68 637.93 1150.22 710.28 1150.22 783 1148.67 783 1148.67 711.01 1085.13 638.66 1085.13 492.68 1139.35 430.93 1139.35 254.4 1190.82 195.78 1190.82 79.59 1192.38 79.59"/><polygon class="c" points="1317.42 550.34 1317.42 664.23 1277.29 709.92 1277.29 783 1275.74 783 1275.74 709.19 1315.87 663.5 1315.87 551.07 1225.58 448.25 1225.58 266.37 1275.5 209.52 1275.5 70.89 1277.05 70.89 1277.05 210.25 1227.13 267.1 1227.13 447.52 1317.42 550.34"/><polygon class="c" points="1218.29 64.36 1218.29 214.06 1167.89 271.45 1167.89 447.17 1116.78 505.38 1116.78 594.95 1173.15 659.14 1173.15 783 1171.6 783 1171.6 659.88 1115.23 595.68 1115.23 504.64 1166.34 446.43 1166.34 270.72 1216.74 213.32 1216.74 64.36 1218.29 64.36"/><polygon class="c" points="1254.84 24.1 1254.84 205.63 1183.66 286.68 1183.66 609.09 1243.85 677.64 1243.85 783 1242.3 783 1242.3 678.37 1182.11 609.83 1182.11 285.95 1253.29 204.89 1253.29 24.1 1254.84 24.1"/><ellipse class="c" cx="1085.85" cy="638.36" rx="4.42" ry="5.03"/><ellipse class="c" cx="1115.88" cy="504.87" rx="4.42" ry="5.03"/><ellipse class="c" cx="1116.12" cy="594.36" rx="4.42" ry="5.03"/><ellipse class="c" cx="1139.89" cy="431.43" rx="4.42" ry="5.03"/><ellipse class="c" cx="1243.31" cy="677.73" rx="4.42" ry="5.03"/><ellipse class="c" cx="1316.58" cy="664.07" rx="4.42" ry="5.03"/><ellipse class="c" cx="1316.58" cy="550.64" rx="4.42" ry="5.03"/><ellipse class="c" cx="1182.58" cy="609.66" rx="4.42" ry="5.03"/><ellipse class="c" cx="1140.22" cy="254.63" rx="2.81" ry="3.2"/><ellipse class="c" cx="1226.41" cy="447.41" rx="2.81" ry="3.2"/><ellipse class="c" cx="1182.91" cy="286.49" rx="2.81" ry="3.2"/><ellipse class="c" cx="1166.82" cy="446.87" rx="2.81" ry="3.2"/><ellipse class="c" cx="1276.06" cy="209.98" rx="2.81" ry="3.2"/><ellipse class="c" cx="1217.3" cy="64.45" rx="2.81" ry="3.2"/><ellipse class="c" cx="1254.08" cy="24.2" rx="2.81" ry="3.2"/><ellipse class="c" cx="1191.5" cy="79.41" rx="2.81" ry="3.2"/><ellipse class="c" cx="1276.18" cy="70.98" rx="2.81" ry="3.2"/><ellipse class="c" cx="1217.39" cy="213.53" rx="2.81" ry="3.2"/></svg>